<?xml version="1.0" encoding="utf-8"?>
<!-- Generator: Adobe Illustrator 21.1.0, SVG Export Plug-In . SVG Version: 6.00 Build 0)  -->
<svg version="1.1" id="Слой_1" xmlns="http://www.w3.org/2000/svg" xmlns:xlink="http://www.w3.org/1999/xlink" x="0px" y="0px"
	 viewBox="0 0 500 500" style="enable-background:new 0 0 500 500;" xml:space="preserve">
<style type="text/css">
	.st0{fill:#2F2F31;}
</style>
<circle class="st0" cx="215.7" cy="232" r="15.8"/>
<circle class="st0" cx="282.5" cy="232" r="15.8"/>
<g>
	<g>
		<path class="st0" d="M297,301c-5.3-9.6-17.7-15.2-27.8-17.7c-19.5-4.9-44.5-3.6-61.2,9c-3.1,2.3-6.4,5.2-8.3,8.7
			c-1.5,2.8,2.8,5.4,4.3,2.5c1.9-3.5,5.4-6.3,8.7-8.5c10.4-6.9,23.3-9.1,35.6-9.1c12.3,0,25.2,2.1,35.6,9.1c3.2,2.2,6.8,5,8.7,8.5
			C294.2,306.3,298.5,303.8,297,301L297,301z"/>
	</g>
</g>
</svg>
