<?xml version="1.0" encoding="utf-8"?>
<!-- Generator: Adobe Illustrator 21.1.0, SVG Export Plug-In . SVG Version: 6.00 Build 0)  -->
<svg version="1.1" id="Слой_1" xmlns="http://www.w3.org/2000/svg" xmlns:xlink="http://www.w3.org/1999/xlink" x="0px" y="0px"
	 viewBox="0 0 500 500" style="enable-background:new 0 0 500 500;" xml:space="preserve">
<style type="text/css">
	.st0{fill:#2F2F31;}
</style>
<g>
	<path class="st0" d="M250.1,342.1c68.1,0,123.6-55.4,123.6-123.6S318.2,95,250.1,95s-123.6,55.4-123.6,123.6S182,342.1,250.1,342.1
		z M250.1,109.6c60.1,0,108.9,48.9,108.9,108.9s-48.9,108.9-108.9,108.9s-108.9-48.9-108.9-108.9S190,109.6,250.1,109.6z"/>
	<path class="st0" d="M423.5,218.6c0-4-3.3-7.3-7.3-7.3h-14.2c-3.8-80.4-70.5-144.7-151.8-144.7c-81.4,0-148,64.3-151.9,144.7H84
		c-4,0-7.3,3.3-7.3,7.3c0,0.8,0.2,1.5,0.4,2.2c-0.2,0.7-0.4,1.4-0.4,2.2c0,93.2,73.8,169.3,166.1,173.2v22.7h-93.1
		c-4,0-7.3,3.3-7.3,7.3c0,4,3.3,7.3,7.3,7.3h196.8c4,0,7.3-3.3,7.3-7.3c0-4-3.3-7.3-7.3-7.3h-89v-22.7
		c92.2-3.9,166.1-80,166.1-173.2c0-0.8-0.2-1.5-0.4-2.2C423.3,220.1,423.5,219.3,423.5,218.6z M250.1,81.2
		c75.8,0,137.4,61.6,137.4,137.4S325.8,356,250.1,356c-75.8,0-137.4-61.6-137.4-137.4S174.3,81.2,250.1,81.2z M250.1,381.7
		c-86.5,0-157.1-69.6-158.7-155.8h6.8c3.8,80.4,70.5,144.7,151.9,144.7c81.4,0,148-64.3,151.8-144.7h6.8
		C407.2,312.1,336.6,381.7,250.1,381.7z"/>
</g>
<circle class="st0" cx="216.5" cy="193.2" r="15.8"/>
<circle class="st0" cx="283.3" cy="193.2" r="15.8"/>
<g>
	<g>
		<path class="st0" d="M297.7,262.2c-5.3-9.6-17.7-15.2-27.8-17.7c-19.5-4.9-44.5-3.6-61.2,9c-3.1,2.3-6.4,5.2-8.3,8.7
			c-1.5,2.8,2.8,5.4,4.3,2.5c1.9-3.5,5.4-6.3,8.7-8.5c10.4-6.9,23.3-9.1,35.6-9.1c12.3,0,25.2,2.1,35.6,9.1c3.2,2.2,6.8,5,8.7,8.5
			C295,267.5,299.3,265,297.7,262.2L297.7,262.2z"/>
	</g>
</g>
</svg>
