<svg width="25" height="25" viewBox="0 0 25 25" fill="none" xmlns="http://www.w3.org/2000/svg">
<path d="M9.92754 21.6472C9.2029 21.4286 8.55072 21.2099 7.89855 20.7726L7.75362 20.6997L4.85507 22.449C3.98551 21.793 3.26087 20.9913 2.6087 20.1895L4.34783 17.2741L4.27536 17.1283C3.91304 16.4723 3.62319 15.8163 3.47826 15.0875L3.4058 14.9417L0.144928 14.1399C0.0724638 13.5569 0 13.0466 0 12.5364C0 12.172 0.0724638 11.6618 0.144928 10.9329L3.4058 10.1312L3.47826 9.98542C3.69565 9.32945 3.91304 8.67347 4.27536 7.94461L4.34783 7.79883L2.6087 4.88338C3.26087 4.00875 4.05797 3.27988 4.85507 2.62391L7.75362 4.37318L7.89855 4.30029C8.55072 3.93586 9.2029 3.64431 9.92754 3.42566H10.0725L10.8696 0.145773C11.5217 0.0728863 12.1014 0 12.4638 0C12.971 0 13.4783 0.0728863 14.058 0.145773L14.8551 3.49854H15C15.7246 3.7172 16.3768 4.00875 17.029 4.37318H17.1739L20.0725 2.62391C20.942 3.27988 21.6667 4.08163 22.3188 4.88338L20.5797 7.79883L20.6522 7.87172C21.0145 8.45481 21.2319 9.18367 21.5217 9.91254V10.0583L24.8551 10.8601C24.9275 11.516 25 12.0262 25 12.4636C25 12.9738 24.9275 13.484 24.8551 14.0671L21.5217 14.8688V15.0146C21.3043 15.7434 21.0145 16.3994 20.6522 17.0554L20.5797 17.2012L22.3188 20.1166C21.5942 20.9913 20.8696 21.793 20.0725 22.3761L17.1739 20.6268L17.029 20.6997C16.3768 21.0641 15.6522 21.3557 15 21.5743L14.8551 21.6472L14.058 24.9271C13.4058 25 12.8261 25 12.4638 25C11.9565 25 11.4493 25 10.8696 24.9271L10.0725 21.6472H9.92754ZM7.82609 12.5364C7.82609 13.8484 8.26087 14.9417 9.2029 15.8892C10.1449 16.8367 11.2319 17.2741 12.5362 17.2741C13.8406 17.2741 14.9275 16.8367 15.8696 15.8892C16.8116 14.9417 17.2464 13.8484 17.2464 12.5364C17.2464 11.2245 16.8116 10.1312 15.8696 9.25656C14.9275 8.30904 13.8406 7.87172 12.5362 7.87172C11.2319 7.87172 10.1449 8.30904 9.2029 9.25656C8.26087 10.1312 7.82609 11.2245 7.82609 12.5364Z" fill="#231F20" fill-opacity="0.5"/>
</svg>
