<?xml version="1.0" encoding="utf-8"?>
<!-- Generator: Adobe Illustrator 21.1.0, SVG Export Plug-In . SVG Version: 6.00 Build 0)  -->
<svg version="1.1" id="Слой_1" xmlns="http://www.w3.org/2000/svg" xmlns:xlink="http://www.w3.org/1999/xlink" x="0px" y="0px"
	 viewBox="0 0 2000 1500" style="enable-background:new 0 0 2000 1500;" xml:space="preserve">
<style type="text/css">
	.st0{fill:#929292;}
</style>
<path class="st0" d="M201,1479c-22-26.9-42.9-52.7-65.8-80.7c121.5-98.7,242.4-197,365.6-297.2c-7.8-4.8-14-9-20.5-12.8
	c-124.8-72.3-230.9-165.8-317-281.7c-28.8-38.8-29.5-54.7,0.4-93.2c230.5-296.6,533.8-436.6,908.7-418.9
	c104.5,5,205.8,30,302.9,69.3c18.4,7.4,29,3.8,42.9-7.5c122.1-100,244.7-199.4,367.2-298.9c5-4,10.3-7.6,16.9-12.4
	c21.5,26.4,42.3,52,65.1,80C1311.7,576.6,757,1027.2,201,1479z M1163.7,562.5c-82.7-83.2-235.5-82.7-331.8-0.9
	c-116.2,98.6-106.8,251.4-59.2,318.5C903.1,774.2,1033.3,668.5,1163.7,562.5z"/>
<path class="st0" d="M1590.2,477.1c100.9,70,185.5,152.4,255.1,250.1c18.4,25.8,17,44.3-4.4,73.3c-136,184.5-313,312.4-531.7,381.2
	c-186,58.6-373.8,62.9-562.7,14.4c-8.4-2.1-16.6-5.1-27.4-8.4c5-5.3,7.8-9,11.2-11.8c63.7-51.9,127.2-103.9,191.5-155
	c6.3-5,17.7-7,25.9-5.5c164.5,30.5,308.3-86.6,312.2-254.5c0.2-7.1,3.6-15.1,7.9-20.9c4.7-6.3,12.1-10.7,18.4-15.8
	C1387.1,642.1,1488,560.1,1590.2,477.1z"/>
</svg>
