<svg width="28" height="20" viewBox="0 0 28 20" fill="none" xmlns="http://www.w3.org/2000/svg">
<path d="M13.2216 0.402344C13.72 0.402344 14.2184 0.402344 14.7168 0.402344C14.812 0.474344 14.9268 0.435677 15.0318 0.446344C17.1458 0.675677 19.033 1.42101 20.6206 2.77568C23.177 4.95568 24.3236 7.69834 24.0212 10.9503C23.8154 13.153 22.8844 15.0863 21.2338 16.645C18.3428 19.3757 14.8708 20.281 10.9928 19.1063C7.05878 17.9143 4.76698 15.2343 4.04738 11.353C4.00958 11.149 4.02918 10.9357 3.94238 10.7397C3.94238 10.2397 3.94238 9.74101 3.94238 9.24101C3.99418 9.22501 3.97878 9.18234 3.98158 9.14768C4.06138 8.28768 4.23638 7.44234 4.57938 6.64368C6.05498 3.19701 8.71358 1.13568 12.579 0.502344C12.7932 0.467677 13.0158 0.48501 13.2216 0.402344ZM22.4252 10.0103C22.4364 5.60101 18.669 1.99168 14.0378 1.97568C9.40098 1.95968 5.60278 5.55568 5.59158 9.97301C5.58038 14.3823 9.34778 17.9917 13.979 18.0077C18.6158 18.0237 22.414 14.4277 22.4252 10.0103Z" fill="#19822A"/>
<path d="M12.3858 13.8958C12.1352 13.9011 11.9378 13.8011 11.7698 13.6411C10.6848 12.6091 9.59841 11.5771 8.51761 10.5411C8.16481 10.2024 8.15921 9.71311 8.48821 9.40245C8.82421 9.08378 9.31981 9.08912 9.68241 9.43178C10.5448 10.2438 11.4016 11.0611 12.2528 11.8824C12.3648 11.9904 12.4194 11.9771 12.5244 11.8771C14.4396 10.0464 16.3604 8.22112 18.277 6.39178C18.4646 6.21312 18.669 6.07978 18.9448 6.08512C19.2822 6.09178 19.537 6.23445 19.684 6.52512C19.8324 6.82112 19.7932 7.10645 19.579 7.36512C19.5342 7.41845 19.4824 7.46645 19.432 7.51578C17.3096 9.53712 15.1858 11.5584 13.0648 13.5811C12.873 13.7651 12.6658 13.9064 12.3858 13.8958Z" fill="#19822A"/>
</svg>
