<?xml version="1.0" standalone="no"?>
<!DOCTYPE svg PUBLIC "-//W3C//DTD SVG 20010904//EN"
 "http://www.w3.org/TR/2001/REC-SVG-20010904/DTD/svg10.dtd">
<svg version="1.0" xmlns="http://www.w3.org/2000/svg"
 width="300.000000pt" height="300.000000pt" viewBox="0 0 300.000000 300.000000"
 preserveAspectRatio="xMidYMid meet">
<metadata>
Created by potrace 1.11, written by Peter Selinger 2001-2013
</metadata>
<g transform="translate(0.000000,300.000000) scale(0.100000,-0.100000)"
fill="#000000" stroke="none">
<path d="M1120 2249 c-97 -16 -174 -61 -265 -152 -67 -67 -90 -99 -129 -177
-74 -152 -90 -224 -90 -425 0 -201 12 -263 80 -404 209 -429 799 -445 1236
-33 131 124 273 320 363 504 47 95 48 98 34 135 -9 23 -27 45 -48 57 -31 18
-37 18 -74 5 -37 -13 -44 -22 -91 -114 -71 -139 -186 -303 -281 -400 -125
-127 -234 -200 -376 -252 -67 -25 -87 -27 -209 -28 -135 0 -135 0 -197 34
-178 96 -270 322 -241 588 26 234 156 427 310 460 172 37 288 -98 205 -240
-46 -78 -31 -144 37 -167 129 -42 241 225 164 392 -54 116 -161 197 -289 218
-35 5 -68 9 -74 9 -5 -1 -35 -5 -65 -10z"/>
</g>
</svg>
