<svg width="29" height="24" viewBox="0 0 29 24" fill="none" xmlns="http://www.w3.org/2000/svg">
<path d="M26.8865 3.90142H19.21L17.66 1.29732C17.5083 1.04271 17.234 0.886719 16.9377 0.886719H12.0624C11.7661 0.886719 11.4916 1.04271 11.3401 1.29732L9.78999 3.90142H7.27101V3.32747C7.27101 2.86327 6.89466 2.48693 6.43046 2.48693H3.32036C2.85607 2.48693 2.47982 2.86327 2.47982 3.32747V3.90142H2.11367C0.946234 3.90142 0 4.84774 0 6.01499V21.3184C0 22.4857 0.946234 23.432 2.11357 23.432H26.8865C28.0538 23.432 29.0001 22.4857 29.0001 21.3184V6.01499C29.0002 4.84774 28.0538 3.90142 26.8865 3.90142ZM14.5 19.683C11.1773 19.683 8.48374 16.9894 8.48374 13.6666C8.48374 10.344 11.1773 7.6503 14.5 7.6503C17.8227 7.6503 20.5163 10.344 20.5163 13.6666C20.5163 16.9894 17.8227 19.683 14.5 19.683ZM25.5678 8.25898H22.9339C22.4697 8.25898 22.0934 7.88264 22.0934 7.41835C22.0934 6.95405 22.4697 6.57771 22.9339 6.57771H25.5678C26.0321 6.57771 26.4084 6.95405 26.4084 7.41835C26.4084 7.88264 26.032 8.25898 25.5678 8.25898Z" fill="black"/>
<path d="M14.4999 17.8698C16.8211 17.8698 18.7029 15.9881 18.7029 13.6669C18.7029 11.3456 16.8211 9.46387 14.4999 9.46387C12.1786 9.46387 10.2969 11.3456 10.2969 13.6669C10.2969 15.9881 12.1786 17.8698 14.4999 17.8698Z" fill="black"/>
</svg>
